<svg xmlns="http://www.w3.org/2000/svg" viewBox="0 0 64 64" role="img" aria-labelledby="title description">
  <title id="title">JP monogram</title>
  <desc id="description">Jean Petit BIKIM portfolio monogram</desc>
  <defs>
    <linearGradient id="background" x1="8" y1="4" x2="56" y2="60" gradientUnits="userSpaceOnUse">
      <stop stop-color="#1d2224"/>
      <stop offset="1" stop-color="#0f1213"/>
    </linearGradient>
  </defs>
  <rect x="1" y="1" width="62" height="62" rx="17" fill="url(#background)" stroke="#343a3c" stroke-width="2"/>
  <path d="M45 7h7a5 5 0 0 1 5 5v7" fill="none" stroke="#c9ef45" stroke-width="3" stroke-linecap="round"/>
  <path d="M12 17h19v21.5C31 46 26.5 51 19.2 51c-4.5 0-8.2-1.8-10.7-5.1l5-4.8c1.6 2 3.2 3 5.3 3 3.1 0 4.8-2 4.8-5.7V24H12v-7Z" fill="#f2f1ec"/>
  <path d="M34 17h10.4C52.5 17 57 21.4 57 28.7c0 7.4-4.8 11.9-12.8 11.9h-3V50H34V17Zm7.2 6.6v10.5h3c3.7 0 5.7-1.8 5.7-5.3 0-3.4-2-5.2-5.7-5.2h-3Z" fill="#c9ef45"/>
</svg>
